<?xml version="1.0" encoding="UTF-8"?>
<svg xmlns="http://www.w3.org/2000/svg" version="1.1" viewBox="-70 -70 450 450">
  <g>
    <path fill="#F5133B" d="M120.4,261.14c-4.44,0-8.06-2.33-8.07-6.2l-.02-14.73c0-1.11-1.36-2.87-2.33-3.13-1.16-.31-3.67.7-4.19,1.72l-9.79,19.25c-.93,1.83-4.32,3.13-6.68,3.13l-57.19-.02c-3.01,0-6.09-.87-7.62-2.81-1.5-1.9-2.33-5.05-.89-7.49L115.03,95.8l22.7-38.43c2.23-3.77,5.64-8.92,11.27-8.93l53.66-.13c4.88,0,8.27,3.47,8.27,7.92l.04,33.84.07,17.04.07,8.61-.05,92.71.1,44.07c.01,5.47-4.57,8.63-10.23,8.63h-80.55.02ZM145.05,139.55c-.37-1.34-1.72-2.17-3.08-1.88-.03,0-.05.01-.08.02-.48.11-.91.35-1.26.7l-.88.88c-.13.13-.25.28-.36.45l-14.87,23.31c-1.04,1.62-.04,3.78,1.87,4.03,5.33.69,13.15.81,17.66.41,1.36-.12,2.39-1.26,2.39-2.62l-.34-14.48c0-.21-.29-8.06-1.05-10.82h0Z"></path>
    <path fill="#F5133B" d="M280.64,261.65l-47.63.04c-4.11,0-7.94-3.81-7.94-7.82V58.19c-.01-3.04,1.59-8.25,6.02-8.28l49.81-.3c2.21.97,6.23,3.72,6.23,6.3v199.5c0,2.29-3.89,6.24-6.49,6.24Z"></path>
  </g>
</svg>