<?xml version="1.0" encoding="UTF-8"?>
<svg id="Ebene_1" xmlns="http://www.w3.org/2000/svg" version="1.1" viewBox="0 0 310 310">
  <!-- Generator: Adobe Illustrator 30.3.0, SVG Export Plug-In . SVG Version: 2.1.3 Build 182)  -->
  <defs>
    <style>
      .st0 {
        fill: #ceff32;
      }

      .st1 {
        fill: #fff;
      }

      .st2 {
        fill: none;
      }

      .st3 {
        display: none;
      }
    </style>
  </defs>
  <g>
    <path class="st0" d="M120.4,261.14c-4.44,0-8.06-2.33-8.07-6.2l-.02-14.73c0-1.11-1.36-2.87-2.33-3.13-1.16-.31-3.67.7-4.19,1.72l-9.79,19.25c-.93,1.83-4.32,3.13-6.68,3.13l-57.19-.02c-3.01,0-6.09-.87-7.62-2.81-1.5-1.9-2.33-5.05-.89-7.49L115.03,95.8l22.7-38.43c2.23-3.77,5.64-8.92,11.27-8.93l53.66-.13c4.88,0,8.27,3.47,8.27,7.92l.04,33.84.07,17.04.07,8.61-.05,92.71.1,44.07c.01,5.47-4.57,8.63-10.23,8.63h-80.55.02ZM145.05,139.55c-.37-1.34-1.72-2.17-3.08-1.88-.03,0-.05.01-.08.02-.48.11-.91.35-1.26.7l-.88.88c-.13.13-.25.28-.36.45l-14.87,23.31c-1.04,1.62-.04,3.78,1.87,4.03,5.33.69,13.15.81,17.66.41,1.36-.12,2.39-1.26,2.39-2.62l-.34-14.48c0-.21-.29-8.06-1.05-10.82h0Z"/>
    <path class="st0" d="M280.64,261.65l-47.63.04c-4.11,0-7.94-3.81-7.94-7.82V58.19c-.01-3.04,1.59-8.25,6.02-8.28l49.81-.3c2.21.97,6.23,3.72,6.23,6.3v199.5c0,2.29-3.89,6.24-6.49,6.24Z"/>
  </g>
  <g class="st3">
    <path class="st1" d="M588.26,177.59c-3.91,0-7.09-2.25-7.1-6.01v-14.28c-.01-1.07-1.21-2.78-2.06-3.03-1.02-.3-3.23.68-3.69,1.67l-8.62,18.66c-.82,1.78-3.8,3.03-5.87,3.03l-50.31-.02c-2.65,0-5.36-.84-6.7-2.72s-2.05-4.9-.78-7.26l80.41-150.28,19.97-37.25c1.96-3.65,4.96-8.65,9.92-8.66l47.21-.12c4.3-.01,7.27,3.36,7.28,7.67l.03,32.8.07,16.52.06,8.35-.04,89.86.09,42.72c.01,5.3-4.02,8.37-9,8.37h-70.86v-.02ZM606.99,70.64l.44-8.91c.02-.41-1.63-1.46-1.95-1.2l-1.06.89-10.29,21.65c4.43,1.51,7.96,1.32,11.7.4l1.15-12.83h0Z"/>
  </g>
  <g class="st3">
    <path class="st1" d="M177.98,243.85c-4.27,0-7.75-2.25-7.75-6.01l-.02-14.28c0-1.07-1.31-2.78-2.24-3.03-1.11-.3-3.53.68-4.03,1.67l-9.42,18.66c-.9,1.78-4.15,3.03-6.42,3.03l-54.97-.02c-2.9,0-5.85-.84-7.32-2.72s-2.24-4.9-.85-7.26l87.87-150.28,21.82-37.25c2.14-3.65,5.42-8.65,10.84-8.66l51.59-.12c4.69,0,7.95,3.36,7.95,7.67l.03,32.8.07,16.52.07,8.35-.05,89.86.1,42.72c.01,5.3-4.39,8.37-9.84,8.37h-77.43v-.02ZM198.45,136.9l.49-8.91c.02-.41-1.79-1.46-2.13-1.2l-1.16.89-11.25,21.65c4.84,1.51,8.7,1.32,12.79.4l1.26-12.83h0Z"/>
  </g>
  <path class="st2" d="M-275.68,248.5c20.71,22.04,40.14,45.29,58.15,69.58"/>
</svg>