<?xml version="1.0" encoding="UTF-8"?>
<svg xmlns="http://www.w3.org/2000/svg" version="1.1" viewBox="0 0 960 540">
  <path fill="#FC78FE" d="M546.04,76.9c0-4.07,2.91-5.86,4.77-5.86l61.91.05c.93,0,1.84.38,2.38,1.1,4.23,5.62,1.56,24.4,2.26,29.89.02.13.03.24.02.37-.06,3.11-1.91,7.21-4.46,7.21-3.69.98-33.99-2.59-35.24,2.95-2.51,5.33-1.56,18.48,3.22,18.5l30.48.19c2.91.02,5.8,3.03,5.92,7.55,0,.16-.01.31-.03.47-.9,6.01,3.34,29.45-4.18,31.49,0,0,0,0,0,0-.11,0-30.58.26-30.58.26-7.36.43-5.41,13.94-5.61,19.1,0,3.7,2.68,7.46,5.54,7.46l25.75.02c8.33,0,16.16-3.78,21.13-10.21,13.56-17.54,42.23-52.11,62.21-58.47,7.14-2.42,6.49-19.09-1.79-19.3,0,0-12.43-2.32-19.14-2.34-4.76-.02-6.85,3.18-7.82,7.66-2.82,13.08-4.89,39.47,6.84,28.37,1.27-1.2-3.75,11.39-3.91,11.7-8.08,15.89-27.53,40.54-35.36,42.2-1.64.35-37.81,17.3-38.22,15.35,0-.04,4.88-16.68,8.8-14.39,7.11,4.16,26.68-6.81,26.25-22.45-.07-2.73.12-10.49.08-13.22-.25-18.02-.99-89.59,2.86-89.4,2.7-3.07,8.02-1.86,11.7-2.08.09,0,.18,0,.27,0,15,.77,41.57,1.14,56.44,1.48.11,0,.22.01.33.02,38.05,4.59,57.48,67.9,8.73,91.68,0,0,0,0,0,0l16.41,30.65c2.62,4.89,3.98,10.31,3.98,15.81v20.45c0,.25-.02.5-.09.74-.69,2.5-2.62,5.43-4.64,5.42l-21.03-.04c-3.08,0-5.07-4.3-5.11-8.23l.02-.38c2.31-19.23-8.68-32.25-16.96-47.77-.99-1.85-3.58-2.2-5.04-.66-18.78,19.83-15.18,22.41-15.43,48.82-.03,5.02-2.99,8.25-6.57,8.28l-34.71.28c-2.87.02-5.97,5.08-7.16,8.16-6.76,17.1-50.08,137.09-56.93,155.35-.05.12-.1.25-.17.38-2.24,4.24-9,2.41-8.93-2.34.27-18.26.8-322.24.8-322.24Z"/>
  <path fill="#F5133B" d="M653.8,468.42c-4.86,0-8.82-2.45-8.82-6.53l-.02-15.52c0-1.17-1.49-3.02-2.55-3.3-1.26-.33-4.01.74-4.58,1.82l-10.71,20.27c-1.02,1.93-4.72,3.3-7.3,3.29l-62.55-.02c-3.3,0-6.66-.92-8.33-2.96-1.64-2-2.55-5.32-.97-7.89l99.97-163.3,24.83-40.48c2.43-3.97,6.16-9.4,12.33-9.41l58.7-.13c5.34-.01,9.04,3.65,9.05,8.34l.04,35.64.08,17.95.07,9.07-.06,97.65.11,46.42c.01,5.76-4.99,9.09-11.19,9.09h-88.1ZM680.77,340.36c-.4-1.41-1.88-2.28-3.36-1.98-.03,0-.06.01-.09.02-.52.11-1,.37-1.38.74l-.96.93c-.15.14-.28.3-.39.47l-16.27,24.55c-1.13,1.71-.04,3.98,2.05,4.24,5.83.73,14.38.86,19.31.44,1.48-.13,2.61-1.33,2.61-2.76l-.37-15.25c0-.22-.32-8.49-1.15-11.4Z"/>
  <path fill="#FC78FE" d="M437.12,285.12l-17.08-.06c-3.92-.01-5.79-4.27-5.79-9.01V81c0-3.91.78-9.03,4.53-9.04l28.47-.07c1.06,0,3.56,2,4.09,3.16l39.27,86.76c.37.82,1.64,2.38,2.1,1.93s1.12-1.55,1.64-2.54l-.05-81.16c-.19-3.3,1.61-8.05,4.38-8.08l24.41-.25c3.31-.03,6.5-.43,8.73,3.79v195.41c-1.33,3.27-3.64,4.48-6.21,4.47l-27.01-.09c-2.1,0-4.98-2.61-5.95-5.2l-10.74-28.63-35.22-96.24c-.38-1.03-1.99-2.26-2.66-2.02-.79.28-1.44,2.32-1.43,3.55l.09,14.64-.06,116.55c0,3.64-2.84,7.18-5.5,7.17Z"/>
  <path fill="#FC78FE" d="M391.54,171.66l-88.62.08c-5.06,0-8.85,4.05-8.84,9.03l.61,37c.29,9.7,13.95,19.4,15.77,18.91l85.18.61c3.09,0,7.85,1.85,7.86,5.94l.19,55.95c0,1.74-1.67,4.23-2.92,4.86-1.44.73-4.85.79-6.44-.27-30.53-20.41-69.57-22.26-101.63-4.1-4.88,1.4-9.69-1.23-11.71-6.09l-28.51-68.61.06-142.13c-.97-4.69.88-8.81,5.31-10.47h140.07c3.09.01,5.71,2.85,5.73,5.59l.13,23.23c.02,3.04-1.74,7.75-5.85,7.76l-96.44.12c-4.18,0-7.31,4.6-7.35,7.9l-.12,10.52c-.03,2.28,2.76,6.94,5.7,6.95l88.67.09c3.66,0,10.14,1.08,10.17,5.68l.15,26.09c.01,2.42-4.04,5.37-7.17,5.38Z"/>
  <path fill="#FC78FE" d="M457.74,432.79v27.27c0,4.73-1.6,8.28-5.14,8.27l-20.84-.06c-2.1,0-5.53-1.99-5.53-5.91v-163.11c.5-3.04,3.75-5.12,5.64-5.11l26.17.17c3.34.02,5.98,3.38,7.3,7.4l31.29,82.2c.73.7,1.7,1.48,2.24,1.37s1.05-1.75,1.47-2.92v-92.31c.38-2.37,2.2-4.91,3.96-4.91l23.48.03c2.48,0,4.03,3.1,4.03,6.57l-.02,171.45c0,3.02-3.38,5.02-4.99,5.02l-28.16-.13c-2.74-.01-5.18-4.45-6.4-7.67l-15.06-39.97-15.86-42.85-2.14-1.44c-.49-.33-1.44,2.14-1.44,2.97v18.26s0,35.44,0,35.44Z"/>
  <path fill="#FC78FE" d="M189.95,181.95l.06-18.84c.02-4.45,3.29-8.17,7.44-8.16l32.56.11c5.09.02,7.18,5.08,7.18,9.69l.04,49.85c0,3.85,1.18,7.56,2.05,11.15l12.08,50.01c.35,1.47-.4,4.88-1.21,5.87s-2.94,2.45-4.54,2.45l-106.93.05c-3.59,0-8.03-.42-10.92-2.02-1.7-.94-3.94-4.94-3.94-7.21l.11-185.83c0-8.03,6.72-17.25,13.92-17.26l94.48-.12c3.45,0,5.12,5.97,5.15,8.68l.16,18.39c.03,3.09-1.18,10.15-5.39,10.18l-62.22.35c-3.63.02-7.71,3.98-7.71,8.19l-.07,84.89c0,4.2,2.57,9.72,6.85,9.73l28.34.06c3.44,0,6.26-3.73,6.11-7.24l-.44-10.63c-.23-5.53-13.2-1.78-13.16-12.33Z"/>
  <path fill="#FC78FE" d="M407.62,425.98c-11.13,27.71-38.22,44.05-69,42.9-23.99-.9-44.33-9.59-57.86-28.86-7.52-10.71-12.1-22.85-13.95-35.82-2.88-20.15-1.58-42.21,6.57-60.71,10.12-22.98,31.54-37.61,57.51-40.53,25.88-2.91,54.21,6.64,68.65,27.86,13.3,19.53,16.52,40.34,15.19,63.72-.62,10.9-2.92,21.03-7.1,31.44ZM356.06,419.98c3.36-3.22,6.49-7.33,8.01-11.78,5.13-15.02,4.95-31.46-.29-46.29-3.32-9.4-11.57-15.41-21.59-15.98-10.07-.58-18.65,3.43-23.43,11.94-4.17,7.42-5.92,15.83-5.9,24.26l.02,7.81c.02,8.64,1.89,16.99,6.67,24.47,8.83,13.8,28.33,13.43,36.52,5.58Z"/>
  <path fill="#F5133B" d="M829.06,468.96l-52.09.04c-4.5,0-8.69-4.02-8.69-8.24v-206.1c-.01-3.2,1.74-8.69,6.59-8.72l54.48-.31c2.42,1.02,6.82,3.92,6.82,6.64v210.12c0,2.41-4.25,6.57-7.1,6.58Z"/>
  <path fill="#FC78FE" d="M185.95,469h-25.23c-4.22-.01-5.98-4.44-5.95-8.95l.16-26.35-.07-88.3c0-3.73-2.02-8.13-5.18-8.15l-18.86-.12c-3.08-.02-6.26-3.32-6.26-7.52v-28.26c0-3.87,2.6-7.37,5.86-7.37l105.12-.04c3.37,1.12,5.59,3.66,5.57,8.16l-.09,29.28c0,2.04-3.04,5.64-4.77,5.65l-39.87.27c-2.54.02-4.7,4.16-4.7,7.35l-.04,116.67c0,4.12-2.49,7.69-5.67,7.69Z"/>
  <path fill="#FC78FE" d="M214.01,468.33c-5.12,0-9.28-3.32-9.28-8.38l.03-27.29-.03-71.72.07-8.49c.03-3.62,3.33-7.83,7.47-7.82l32.2.08c4.18.01,6.98,4.06,6.98,7.97v107.26c0,4.37-2.72,8.33-7.46,8.34l-29.98.06Z"/>
  <g id="Generatives_Objekt__x28_-180_x2C__0_x29_">
    <path fill="#FC78FE" d="M780.66,203.42c-6.57.48-4.25,23.84-5.34,31.04,0,.01,0,.02,0,.03-.42,1.5-1.88,2.52-3.5,2.62s-3.46-.04-4.88.05c-6.85.08-20.67.23-24.36.27-2.95.17-4.98-2.7-5.97-5.1-.82-2.08-2.55-58.15-3.3-72.13-.26-4.86,2.1-5.09,5.59-11.11,22.71-39.26-7.98-71.24-8.01-71.26-2.04-1.88-2.17-4.83.65-4.84,11.01-.04,46.35-.02,55.25,1.19,4.44.6,8.05,3.72,9.15,7.91,6.48,24.61,28.73,109.09,39.1,147.14.52,2.18.08,5.53-2.03,7.17-1.11.78-1.82.51-3.73.56-3.65-.02-7-.11-11.34-.18-4.44-.09-8.97-.17-12.33-.27-3.9,0-6.71-1.74-7.56-5.33-1.17-3.2-3.37-9.2-4.66-12.72-1.99-5.84-5.68-13.79-12.58-15.03h-.14ZM785.44,165.7c2.81-1.18,1.57-3.98.93-6.32-1.2-4.38-4.22-15.41-5.08-18.54-.42-1.67-2.44-5.02-4.59-3.7-.93.75-1.29,2.85-1.44,4.37-.01.11-.01.21-.02.31-.04,6.72-1.42,13.98-1.37,20.88.23,2.92,3.02,3.33,5.93,3.35,1.76.03,3.92.19,5.46-.3l.18-.07Z"/>
  </g>
</svg>